#define noname_width 48
#define noname_height 48
static char noname_bits[] = {
 0xFC,0xFF,0xFF,0xFF,0xFF,0x7F,0xFC,0xFF,0xFF,0xFF,0xFF,0x7F,0xFF,0xFF,0xFF,
 0xFF,0xFF,0xFF,0xFF,0xFF,0xFF,0xFF,0xFF,0xFF,0xDF,0x56,0x95,0x24,0x00,0xE0,
 0xBF,0xBD,0x55,0xD5,0x6E,0xE5,0xEF,0xF7,0xFF,0x6F,0xBB,0xEB,0xAF,0xFF,0xFF,
 0xFF,0xFF,0xE7,0xDF,0xFF,0xDF,0xFE,0xFF,0xE7,0xFF,0xFF,0x0F,0x00,0xE0,0xEF,
 0xAF,0xFF,0x07,0x00,0xE0,0xE3,0xEF,0xFF,0x07,0x00,0xE0,0xE7,0xDF,0xFF,0x03,
 0x00,0xE0,0xE7,0xDF,0xFF,0x07,0x00,0xE0,0xEF,0xFF,0xFF,0x03,0x00,0xF0,0xE7,
 0xCF,0xFF,0x03,0x88,0xFC,0xE7,0xFF,0xFF,0x03,0xFC,0xFF,0xE7,0x8F,0xFF,0x03,
 0xFE,0xFF,0xE7,0xFF,0xFF,0x03,0xD4,0xFF,0xE7,0xD7,0xFF,0x03,0x00,0xFE,0xE7,
 0xEF,0xFF,0x01,0x00,0xFF,0xE7,0xCF,0xFF,0x01,0x00,0xFE,0xE7,0xDF,0xFF,0x01,
 0x00,0xFE,0xE7,0xDF,0xFF,0x01,0x00,0xFF,0xE7,0xEF,0xFF,0x00,0xA0,0xFF,0xE3,
 0xCF,0xFF,0x80,0xFF,0xFF,0xE7,0xDF,0xFF,0x00,0xFF,0xFF,0xE7,0xDF,0xFF,0x80,
 0xFF,0xFF,0xE7,0xEF,0xFF,0x80,0xFF,0xFF,0xC3,0xCF,0x7F,0x80,0xFF,0xFF,0xE7,
 0xAF,0xFF,0x80,0xFF,0xFF,0xE7,0xDF,0x7F,0x80,0xFF,0xFF,0xE7,0xAF,0x7F,0xC0,
 0xFF,0xFF,0xC3,0xD7,0x7F,0xC0,0xFF,0xFF,0xE7,0xEF,0x7F,0xC0,0xFF,0xFF,0xC7,
 0xCF,0x3F,0xC0,0xFF,0xFF,0xE7,0xAF,0x3F,0xC0,0xFF,0xFF,0xC3,0xDF,0x3F,0xE0,
 0xFF,0xFF,0xE7,0xCF,0x3F,0xC0,0xFF,0xFF,0xC7,0xDF,0x7F,0xF0,0xFF,0xFF,0xC7,
 0xCF,0xFF,0xFF,0xFF,0xFF,0xE3,0x9F,0xFF,0xFF,0xFF,0xFF,0xC7,0xAF,0x52,0x55,
 0x95,0x00,0xE0,0x2F,0x02,0x00,0x00,0x04,0xC0,0x4F,0x49,0x2A,0x01,0x10,0xE0,
 0xFF,0xFF,0xFF,0xFF,0xF7,0xFF,0xFF,0xFF,0xFF,0xFF,0xFF,0xFF,0xFC,0xFF,0xFF,
 0xFF,0xFF,0x7F};
