/* XPM */
static char *firefox[] = {
/* columns rows colors chars-per-pixel */
"48 48 257 2",
"   c #000000",
".  c #00000C",
"X  c #0A0300",
"o  c #0E0803",
"O  c #030417",
"+  c #170501",
"@  c #1F1006",
"#  c #01052B",
"$  c #000232",
"%  c #00043C",
"&  c #060B36",
"*  c #02133C",
"=  c #1C1538",
"-  c #250802",
";  c #271506",
":  c #331D0A",
">  c #2D0A11",
",  c #251434",
"<  c #372309",
"1  c #3E202E",
"2  c #313035",
"3  c #000544",
"4  c #000B4A",
"5  c #000A46",
"6  c #000B54",
"7  c #031048",
"8  c #001253",
"9  c #001859",
"0  c #1A125B",
"q  c #000F71",
"w  c #001D63",
"e  c #02186A",
"r  c #000B65",
"t  c #0C305A",
"y  c #1C2B56",
"u  c #172D40",
"i  c #00256B",
"p  c #002667",
"a  c #012974",
"s  c #003175",
"d  c #00347A",
"f  c #013A7C",
"g  c #003A72",
"h  c #103870",
"j  c #332747",
"k  c #303F5F",
"l  c #342F55",
"z  c #383261",
"x  c #004779",
"c  c #0F5078",
"v  c #364A54",
"b  c #2B5379",
"n  c #304D65",
"m  c #2E6879",
"M  c #440300",
"N  c #4A1516",
"B  c #550500",
"V  c #4B1A06",
"C  c #4C290E",
"Z  c #4C2B10",
"A  c #582C09",
"S  c #5B3213",
"D  c #5D2A27",
"F  c #680300",
"G  c #781003",
"H  c #643915",
"J  c #763112",
"K  c #6D3D2E",
"L  c #4C334D",
"P  c #774A1B",
"I  c #7E5D18",
"U  c #67563F",
"Y  c #7B611A",
"T  c #574F58",
"R  c #5B5063",
"E  c #5B5B70",
"W  c #546C6D",
"Q  c #665D5C",
"!  c #654E53",
"~  c #6B5F69",
"^  c #7F696A",
"/  c #786E69",
"(  c #003A84",
")  c #00458B",
"_  c #01468A",
"`  c #014B93",
"'  c #004B99",
"]  c #005394",
"[  c #00549C",
"{  c #005B9B",
"}  c #075A98",
"|  c #144887",
" . c #005BA2",
".. c #016297",
"X. c #02739D",
"o. c #07698B",
"O. c #0262A5",
"+. c #0065A9",
"@. c #006AAB",
"#. c #076DAA",
"$. c #006FB0",
"%. c #0873AB",
"&. c #0073B1",
"*. c #0879B6",
"=. c #107AB8",
"-. c #1775A9",
";. c #285C83",
":. c #276D95",
">. c #3D7BA1",
",. c #596780",
"<. c #618151",
"1. c #678C6F",
"2. c #0084BC",
"3. c #0A88BD",
"4. c #1082BD",
"5. c #018DC4",
"6. c #0B89C3",
"7. c #0196C9",
"8. c #0497CA",
"9. c #039ED1",
"0. c #089ED1",
"q. c #1289C4",
"w. c #1394CC",
"e. c #09A1D3",
"r. c #17A7DA",
"t. c #1AB5E5",
"y. c #18AFE0",
"u. c #20BCEC",
"i. c #5A8F9B",
"p. c #4398B5",
"a. c #59A0AE",
"s. c #7A8A91",
"d. c #860500",
"f. c #970700",
"g. c #991903",
"h. c #97270C",
"j. c #8D3010",
"k. c #A90601",
"l. c #AE1803",
"z. c #B40100",
"x. c #B60B00",
"c. c #B90C00",
"v. c #BA1400",
"b. c #AB2806",
"n. c #B92902",
"m. c #B93709",
"M. c #A12C10",
"N. c #914F18",
"B. c #8A4C3A",
"V. c #944F31",
"C. c #996121",
"Z. c #BF400C",
"A. c #AF5815",
"S. c #A95131",
"D. c #B96015",
"F. c #B06F2A",
"G. c #945946",
"H. c #837F5F",
"J. c #8B654B",
"K. c #8A7762",
"L. c #B6784A",
"P. c #C21B02",
"I. c #C62803",
"U. c #C73705",
"Y. c #D33906",
"T. c #C9450B",
"R. c #CC4810",
"E. c #CA5715",
"W. c #D54808",
"Q. c #D14E11",
"!. c #DA550C",
"~. c #DA5712",
"^. c #CC5F26",
"/. c #DA6514",
"(. c #DF7019",
"). c #D06813",
"_. c #CB7738",
"`. c #D96727",
"'. c #D7772A",
"]. c #D06C2D",
"[. c #E45504",
"{. c #E55906",
"}. c #E45C0A",
"|. c #E85D0B",
" X c #E25609",
".X c #E35A13",
"XX c #E6630D",
"oX c #EB6413",
"OX c #EE6916",
"+X c #EC6B1B",
"@X c #E46714",
"#X c #E87817",
"$X c #F16B18",
"%X c #F4731C",
"&X c #E2760D",
"*X c #E76B25",
"=X c #EB7626",
"-X c #F37627",
";X c #F0782D",
":X c #AE842C",
">X c #BF8F31",
",X c #B98E2E",
"<X c #9D8C43",
"1X c #B49A41",
"2X c #AD8B70",
"3X c #D7842D",
"4X c #DA883A",
"5X c #D39A31",
"6X c #D1B734",
"7X c #EE9616",
"8X c #EA8614",
"9X c #E78733",
"0X c #F8842A",
"qX c #FA8836",
"wX c #FD9C2F",
"eX c #FD9335",
"rX c #FC9B34",
"tX c #F2A41B",
"yX c #F5B11C",
"uX c #E9A533",
"iX c #F9A629",
"pX c #FDA838",
"aX c #FCBB26",
"sX c #FDB837",
"dX c #EBB934",
"fX c #D39250",
"gX c #E38847",
"hX c #F2934E",
"jX c #F19D62",
"kX c #F2B954",
"lX c #F6A769",
"zX c #FDC628",
"xX c #FEC435",
"cX c #FECB39",
"vX c #FEC838",
"bX c #FED42A",
"nX c #FFDB38",
"mX c #FED438",
"MX c #EDC334",
"NX c #FFE738",
"BX c #FFF738",
"VX c #FEC342",
"CX c #FEC955",
"ZX c #FDD648",
"AX c #FDDF5C",
"SX c #FED765",
"DX c #FFD677",
"FX c #FFE849",
"GX c #FDE55B",
"HX c #FEE664",
"JX c #FEEB76",
"KX c #B39983",
"LX c #D6B483",
"PX c #DBC29A",
"IX c #FEF18A",
"UX c #FEF8A0",
"YX c None",
/* pixels */
"YXYXYXYXYXYXYXYXYXYXYXYXYXYXYXYXYXYXYXYXYXYXYXYXYXYXYXYXYXYXYXYXYXYXYXYXYXYXYXYXYXYXYXYXYXYXYXYX",
"YXYXYXYXYXYXYXYXYXYXYXYXYXYXYXYXYXYXYXYXYXYXYXYXYXYXYXYXYXYXYXYXYXYXYXYXYXYXYXYXYXYXYXYXYXYXYXYX",
"YXYXYXYXYXYXYXYXYXYXYXYXYXYXYXYXYXYXYXYXYXYXYXYXYXYXYXYXYXYXYXYXYXYXYXYXYXYXYXYXYXYXYXYXYXYXYXYX",
"YXYXYXYXYXYXYXYXYXYXYXYXYXYXYXYXYXYXYXYXYXYXYXYXYXYXYXYXYXYXYXYXYXYXYXYXYXYXYXYXYXYXYXYXYXYXYXYX",
"YXYXYXYXYXYXYXYXYXYXYXYXYXYXYXYXYX  . O # * * * & # O   YXYXYXYXYXYXYXYXYXYXYXYXYXYXYXYXYXYXYXYX",
"YXYXYXYXYXYXYXYXYXYXYXYXYXYXYX. & 9 ( } *.=.q.q.=.%.} f 9 # X YXYXYXYXYXYXYXYXYXYXYXYXYXYXYXYXYX",
"YXYXYXYXYXYXYXYXYXYXYXYXYXO & i ` O.%.=.q.r.y.r.w.w.q.4.$.{ i # . YXYXYXYXYXYXYXYXYXYXYXYXYXYXYX",
"YXYXYXYXYXYX  o X YXYX. # w ( ` ] ..#.=.w.t.u.u.r.q.4.p.a.i.1.W y O   YXYXYXYXYXYXYXYXYXYXYXYXYX",
"YXYXYXYXYXYX+ N.; YX. 5 a d ( ) ` ' O.#.=.t.u.u.r.q.=.%.-.:.<.6X6X,XP ; YXYXYXYXYXYXYXYXYXYXYXYX",
"YXYXYXYXYXYXA #XA . 5 w a q d ( ) :.i.>.*.t.t.t.r.4.*.#.O.} b U wXbXcX3XZ   YXYXYXYXYXYXYXYXYXYX",
"YXYXYXYXYX  A.#XA.= 9 w q ( ( ( s.PX2X;.6.t.t.r.r.3.%.#...;./ fXpXpXCXSX9XZ : ; YX  YXYXYXYXYXYX",
"YXYXYXYXYX@ ).#XXXB.l R K.K.E L.lXfXn ..9.r.w.q.q.*.=.6.5.X.] n <.kXkXGXIX9XP I     YXYXYXYXYXYX",
"YXYXYXYXYX; E.~.Q.*XgXjXjXlXhX;X-XB.} 3.e.e.w.6.0.0.0.9.9.2._ g p v >XnXFXSX_.,X<   YXYXYXYXYXYX",
"YXYXYXYXYX- U.T..X.XoX+X+X-X+X$XoXK X.8.e.e.e.9.0.e.9.9.7.2.{ f f p t <XbXFXkXdXY     YXYXYXYXYX",
"YXYXYXYX  - Y.!. X|.}.{.{.|.|.OX Xh.n 8.9.9.9.9.9.7.7.7.5.5.2.{ ] ..{ c >XbXcXcX,Xo   YXYXYXYXYX",
"YXYXYXYX  A XXXX|.|.}. X{.{.|.|. Xn.M.Q m o.5.9.7.7.7.5.5.5.2.&.&.$.@.] T iXzXzXuX;   YXYXYXYXYX",
"YXYXYXYX< ).&XXX#X{.{.{.{.|.}.}.|.U.m.W.C.! 2.3.3.7.2.2.@.O.&.&.$.@.+.b n 4XaXaXpXC     YXYXYXYX",
"YXYXYXX C.XX!.(.~. X{.{.{.{.|.|.@X~.`.jXlX1.o.2.2.%.&.2.{ x ] @.@.+. .n F.4XzXiXwXH     YXYXYXYX",
"YXYXYX: ).[.!.@X}.XX|.{.|.|.XXOX*X=XjXKXn c @.2.&.] _ ] _ f f { +. .[ t ,XpXxXaXeXC.Z X   YXYXYX",
"YXYXYXA U.W.XX}.@X/.{.|.{.XXOX=X;X9XgXv x ..@.&.&._ g f s s s _  . .( 9 F.sXxXbX0X'.C.X   YXYXYX",
"YXYXYX- j./. X{.(.{.XX{.XX+X=X;XqXqXhXQ { @.&.$.@.] s s s i i f [ [ ) p :XsXvXnXqXrX:XX   YXYXYX",
"YXYXYXX N.@X[.}.@X{.XXXX+X(.`.*X_._.gXK.{ @.@.@.@.+.] d p p w p f s h h 5XxXcXnXqXsXF.X   YXYXYX",
"YXYXYX+ D.}.}.}.[.[.{.[.T.b.m.M.2 u 2 v ] O.O. .O.O.' p w w 9 9 8 8 L n 5XsXcXmXrXvXF.    YXYXYX",
"YXYXYX- Z.Y.}.XX[.[.[.T.b.b.b.j.t g g x ] ] {  . . .) p 9 9 9 8 8 8 ! J.uXpXmXmXpXnXN.    YXYXYX",
"YXYXYX- n.Y.}./.[.[.[.m.m.m.m.E.! ( ' ' '  .' [ ' ' ' ( 6 8 8 4 6 e Q iXeXpXmXcXsXnXH     YXYXYX",
"YXYXYX- l.W.{.XX}.[.!.U.m.Z.T.!.~.! ( ( ' ( ;.~ ^ ,.| ( 8 4 4 4 4 a Q sXeXsXVXvXNXMX<     YXYXYX",
"YXYXYXo f.W.!.[.}.[.[.W.T.T.R.!.oX@XS.R R G.].;XqXjXKXl 4 5 3 3 4 a Q xXrXsXVXcXBX5X+     YXYXYX",
"YXYXYX  d.T.W.[.[. X[.!.Q.!.E.!.Q.oX$X$X$X%X$X-X.X].L.j % 3 % % 0 a F.bXsXVXcXNXNXC.      YXYXYX",
"YXYXYX  B U.R. X[.[.[.{.!.~.~..Xm.b.Q.~..X.X.XR.j.> O $ % % % 7 z z 9XvXVXSXmXNXsXS     YXYXYXYX",
"YXYXYX  - l.I.}.[.[.[.[.|.XXOXoX~.b.l.b.b.n.h.N # # # $ $ $ 4 L G.G.wXsXJXDXcXcX3X@     YXYXYXYX",
"YXYXYX    d.v.Q.{.[.[.{.{.|.oXOXOX~.J N N > & 5 # $ $ $ $ % j _.F.;XwXZXUXCXsXsXN.      YXYXYXYX",
"YXYXYX    M v.U.Q.W.[.{.{.|.|.oXoXoXQ.D & 3 6 9 6 3 $ $ $ D ].;X-X0XsXIXIXpXpX3X@     YXYXYXYXYX",
"YXYXYX    X d.I.I.U.W.[.{.|.|.XXoXoX$XOXA.L 0 q q r 3 , K *X0X0X0XsXHXIXkXrXeXH .     YXYXYXYXYX",
"YXYXYXYX    - x.I.n.U.[.XX{.|.XXoXoXoX$X$XoX^.S.B.G.S.*X-X-X$X0XsXGXJXHXeXqXF.X       YXYXYXYXYX",
"YXYXYXYX      F z.v.n.U.W.W.{.|.oXoX$X%X$X$X$X$X%X-X-X.XoX+X8XdXZXGXHXpXeX'.:       YXYXYXYXYXYX",
"YXYXYXYXYX    o d.z.x.I.I.U.Y.W. X.X.X.X|.$X$X$XoX.XW..X@X7XyXzXmXZXpXqX;XZ       YXYXYXYXYXYXYX",
"YXYXYXYXYX      + d.z.z.z.c.I.U.I.I.I.P.I.I.Y.Y.Y.Y.!.&X8X7XtXaXaXiXqX9XH         YXYXYXYXYXYXYX",
"YXYXYXYXYXYX      - d.z.z.z.z.x.l.z.z.z.z.z.z.v.I.W.!.&X8X7XtXtX0X;X=XS         YXYXYXYXYXYXYXYX",
"YXYXYXYXYXYXYX      + F z.z.z.z.z.z.z.z.z.z.z.v.P.U.W.}.&X8X&X+X-X^.C         YXYXYXYXYXYXYXYXYX",
"YXYXYXYXYXYXYXYX        M d.z.z.z.z.z.z.z.z.z.x.v.I.W.W.!.!.XX/.N.;           YXYXYXYXYXYXYXYXYX",
"YXYXYXYXYXYXYXYXYX        + M d.z.z.z.z.z.z.z.z.c.P.I.Y.Y.T.j.V             YXYXYXYXYXYXYXYXYXYX",
"YXYXYXYXYXYXYXYXYXYX          X - B F f.f.k.k.k.k.f.g.G V ;             YXYXYXYXYXYXYXYXYXYXYXYX",
"YXYXYXYXYXYXYXYXYXYXYX                X + - - - @ X X                 YXYXYXYXYXYXYXYXYXYXYXYXYX",
"YXYXYXYXYXYXYXYXYXYXYXYXYX                                        YXYXYXYXYXYXYXYXYXYXYXYXYXYXYX",
"YXYXYXYXYXYXYXYXYXYXYXYXYXYXYXYX                              YXYXYXYXYXYXYXYXYXYXYXYXYXYXYXYXYX",
"YXYXYXYXYXYXYXYXYXYXYXYXYXYXYXYXYXYXYXYXYXYXYXYXYXYXYXYXYXYXYXYXYXYXYXYXYXYXYXYXYXYXYXYXYXYXYXYX",
"YXYXYXYXYXYXYXYXYXYXYXYXYXYXYXYXYXYXYXYXYXYXYXYXYXYXYXYXYXYXYXYXYXYXYXYXYXYXYXYXYXYXYXYXYXYXYXYX",
"YXYXYXYXYXYXYXYXYXYXYXYXYXYXYXYXYXYXYXYXYXYXYXYXYXYXYXYXYXYXYXYXYXYXYXYXYXYXYXYXYXYXYXYXYXYXYXYX"
};
