/* XPM */
static char *GTKsubtitler_2[]={
"48 48 4 1",
". c #000080",
"b c #0058c0",
"a c #0080ff",
"# c #ffffff",
"................................................",
"................................................",
"................................................",
"................................................",
"................................................",
"................................................",
"................................................",
"................................................",
"................................................",
"................................................",
"................................................",
".....######.....###############...####.....####.",
"....########....###############...####.....####.",
"...##########...###############...####....####..",
"aa####aaa#####aa###############aaa####aaaa####aa",
"b####bbbbb####bbbbbbb#####bbbbbbbb####bbb####bbb",
"b###bbbbbbb###bbbbbbb#####bbbbbbbb####bbb####bbb",
"b###bbbbbbb###bbbbbbb#####bbbbbbbb####bb####bbbb",
"b###bbbbbbb###bbbbbbb#####bbbbbbbb####b####bbbbb",
"b#..bb.bb.b...bb.....#.#.....b.bbb#....#...bbbbb",
"b.##.b.bb.b.bb.bbb.bb#.###.bbb.bbb#.####.#b.bbbb",
"b.##bb.bb.b.bb.bbb.bb#.###.bbb.bbb#.####.#b.bbbb",
"b.##bb.bb.b.b.bbbb.bb#.###.bbb.bbb#...##.#b.bbbb",
"b#..bb.bb.b.b.bbbb.bb#.###.bbb.bbb#.####...bbbbb",
"b###.b.##.#.##.bbb.bb#.###.bbb.bbb#.####.#b.bbbb",
"b.##.b.##.#.##.bbb.bb#.###.bbb.bbb#.####.#b.bbbb",
"b#..bbb..##...bbbb.bb#.###.bbb....#....#.#b.bbbb",
"b###bbbbbb####bbbbbbb#####bbbbbbbb####b####bbbbb",
"b###bbbbbb####bbbbbbb#####bbbbbbbb####bb####bbbb",
"b####bbbbb####bbbbbbb#####bbbbbbbb####bb####bbbb",
"aa####aaa#####aaaaaaa#####aaaaaaaa####aaa####aaa",
"..#####.######.......#####........####...####...",
"...##########........#####........####....####..",
"....########.........#####........####....####..",
".....######..........#####........####.....####.",
"..................................####.....####.",
"................................................",
"................................................",
"................................................",
"................................................",
"................................................",
"................................................",
"................................................",
"................................................",
"................................................",
"................................................",
"................................................",
"................................................"};
